<svg xmlns="http://www.w3.org/2000/svg" width="73" height="73" viewBox="0 0 73 73"><g transform="translate(-1178 -444)"><path d="M36.5,0A36.5,36.5,0,1,1,0,36.5,36.5,36.5,0,0,1,36.5,0Z" transform="translate(1178 444)" fill="#589cff"/><g transform="translate(1197 463)"><rect width="35" height="32.308" transform="translate(0 0)" fill="none"/><path d="M16.364,16H11v1.978h5.364Z" transform="translate(4.706 11.517)" fill="#fff"/><path d="M5,5.453A3.444,3.444,0,0,1,8.434,2H25.6a3.444,3.444,0,0,1,3.434,3.453V33.081A3.443,3.443,0,0,1,25.6,36.534H8.434A3.444,3.444,0,0,1,5,33.081Zm3.434,0H25.6V33.081H8.434Z" transform="translate(1.101 -2)" fill="#fff" fill-rule="evenodd"/></g></g></svg>