<?xml version="1.0" encoding="utf-8"?>
<!-- Generator: Adobe Illustrator 22.1.0, SVG Export Plug-In . SVG Version: 6.00 Build 0)  -->
<svg version="1.1" id="Layer_1" xmlns="http://www.w3.org/2000/svg" xmlns:xlink="http://www.w3.org/1999/xlink" x="0px" y="0px"
	 viewBox="0 0 90.2 100" style="enable-background:new 0 0 90.2 100;" xml:space="preserve">
<style type="text/css">
	.st0{fill:#EB382F;stroke:#EB382F;stroke-width:0.3;stroke-miterlimit:10;}
</style>
<g transform="translate(0,-952.36218)">
	<path class="st0" d="M30.8,953.4c-3.2,0-6,1.8-8,4.7c-1.8,2.7-3,6.2-3.2,10h-17c-0.7,0-1.2,0.5-1.2,1.2v16.5c0,0.7,0.5,1.2,1.2,1.2
		h5.3v62.8c0,0.7,0.5,1.2,1.2,1.2h72.2c0.7,0,1.2-0.5,1.2-1.2v-62.8h5.3c0.7,0,1.2-0.5,1.2-1.2v-16.5c0-0.7-0.5-1.2-1.2-1.2h-17
		c-0.2-3.7-1.3-7.2-3.2-9.7c-2-2.8-4.8-4.7-8-4.7c-2.3,0-4.8,1.5-7.3,3.2c-2.5,1.7-5,3.5-6.7,4.7l0,0l-0.3,0.2
		c-1.7-1.2-4.2-3-6.7-4.7c-1.3-1-2.7-1.8-4-2.5C33.1,953.9,32,953.4,30.8,953.4L30.8,953.4z M30.8,955.5c0.5,0,1.5,0.3,2.7,0.8
		s2.5,1.3,3.8,2.3c2.2,1.5,4.2,3,5.8,4.2l-7.7,5H21.8c0.2-3.3,1.2-6.5,2.7-8.7C26.3,956.9,28.4,955.5,30.8,955.5z M59.5,955.9
		c2.3,0,4.5,1.3,6.2,3.7c1.5,2.2,2.5,5.2,2.7,8.4H39.6l7.2-4.7l0,0c1.8-1.2,4.2-3,6.7-4.7C55.8,957,58.3,955.9,59.5,955.9
		L59.5,955.9z M3.7,970.2H39v7.5c0,0.7,0.5,1.2,1.2,1.2s1.2-0.5,1.2-1.2l0,0v-7.5h7.9v7.5c0,0.7,0.5,1.2,1.2,1.2
		c0.7,0,1.2-0.5,1.2-1.2l0,0v-7.5h35.2v14.2h-83C3.7,984.6,3.7,970.2,3.7,970.2z M10.2,986.8H39v61.6H10.2V986.8L10.2,986.8z
		 M41.1,986.8h8v61.6h-7.9L41.1,986.8L41.1,986.8z M51.3,986.8h28.7v61.6H51.3V986.8L51.3,986.8z"/>
</g>
</svg>
