<?xml version="1.0" encoding="utf-8"?>
<!-- Generator: Adobe Illustrator 22.1.0, SVG Export Plug-In . SVG Version: 6.00 Build 0)  -->
<svg version="1.1" id="Layer_1" xmlns="http://www.w3.org/2000/svg" xmlns:xlink="http://www.w3.org/1999/xlink" x="0px" y="0px"
	 viewBox="0 0 155.2 100" style="enable-background:new 0 0 155.2 100;" xml:space="preserve">
<style type="text/css">
	.st0{fill:#EB382F;stroke:#FFFFFF;stroke-width:0.7;stroke-miterlimit:10;}
</style>
<g>
	<g>
		<g>
			<path class="st0" d="M104.1,20.1l-37.8-13c-3.5-1.2-7.6-0.9-11,0.6l-2,0.9c-2.6,1.2-5.7,1.4-8.3,0.5l-3.2-1.2
				c-0.2-0.2-0.3-0.2-0.5-0.3L22,1c-0.5,0-1.1,0-1.4,0.3c-0.5,0.2-0.8,0.6-0.9,1.1L3.3,49.8c-0.3,0.9,0.2,2,1.1,2.3l19.4,6.7
				c0.2,0.2,0.5,0.2,0.6,0.2c0.3,0,0.6,0,0.8-0.2c0.5-0.2,0.8-0.6,0.9-1.1L41.7,12l2,0.8c3.7,1.2,7.6,1.1,11.2-0.6l1.8-0.9
				c2.6-1.2,5.5-1.4,8.3-0.5l36.4,12.5c-0.3,1.5-1.1,4.3-3.1,5.7c-1.8,1.2-4.3,1.2-7.6,0.2L75,23.5c-0.5-0.2-1.1-0.2-1.5,0.2
				c-0.5,0.3-0.8,0.6-0.9,1.2c0,0.2-2.4,8.9-9.8,12.7c-4.6,2.4-10.4,2.6-17.1,0.3c-0.9-0.3-2,0.2-2.3,1.1s0.2,2,1.1,2.3
				c3.5,1.2,7,1.8,10.1,1.8c3.7,0,6.9-0.8,9.9-2.4c6.6-3.5,9.8-9.9,10.9-13.1l14.1,4.9c4.4,1.5,8.1,1.4,10.9-0.6
				c4.6-3.1,4.7-9.6,4.7-9.8C105.5,21.2,104.8,20.4,104.1,20.1z M23.3,54.7L7.4,49.2l15.1-44L38,10.5c0.2,0,0.3,0.2,0.3,0.2l0,0
				L23.3,54.7z"/>
			<path class="st0" d="M152.7,47.3l-22-45c-0.2-0.5-0.6-0.8-1.1-0.9c-0.5-0.2-0.9-0.2-1.4,0.2l-18.3,9c-0.9,0.5-1.2,1.5-0.9,2.4
				L130.4,57l-7.2,6.6c-6.1,5.7-13,10.2-20.5,13.9L67.4,94.6c-0.9,0.5-2.1,0.6-3.1,0.2c-1.1-0.3-1.8-1.1-2.3-2.1
				c-0.5-0.9-0.6-2.1-0.2-3.1c0.3-1.1,1.1-1.8,2.1-2.3l19.7-9.6c0.9-0.5,1.2-1.5,0.9-2.4c-0.5-0.9-1.5-1.2-2.4-0.9l-19.3,9.5
				l-9.8,4.7c-2,0.9-4.4,0.2-5.5-1.8c-0.9-2-0.2-4.4,1.8-5.5l28.3-13.9c0.9-0.5,1.2-1.5,0.9-2.4c-0.5-0.9-1.5-1.2-2.4-0.9L55.2,74.2
				l-7.3,3.5l-3.5,1.7c-2,0.9-4.4,0.2-5.5-1.8c-0.9-2-0.2-4.4,1.8-5.5l3.5-1.7L69.5,58c0.9-0.5,1.2-1.5,0.9-2.4
				c-0.5-0.9-1.5-1.2-2.4-0.9l-16.2,8l-9,4.4c-0.9,0.5-2.1,0.6-3.1,0.2c-1.1-0.3-1.8-1.1-2.3-2.1c-0.5-0.9-0.6-2.1-0.2-3.1
				c0.3-1.1,1.1-1.8,2.1-2.3l13.5-6.6c0.9-0.5,1.2-1.5,0.9-2.4c-0.5-0.9-1.5-1.2-2.4-0.9l-13.5,6.6c-1.8,0.9-3.2,2.4-4,4.4
				c-0.6,2-0.6,4.1,0.3,6c0.8,1.5,1.8,2.6,3.2,3.4c-2.3,2.3-3.1,5.8-1.5,9c1.4,2.8,4.1,4.3,7,4.3c0.3,0,0.6,0,1.1,0
				c-0.3,1.5,0,3.2,0.6,4.7c1.4,2.8,4.1,4.3,7,4.3c1.1,0,2.3-0.3,3.4-0.8l3.4-1.7c-0.2,1.4,0.2,2.9,0.8,4.1c0.9,1.8,2.4,3.2,4.4,4
				c0.8,0.3,1.7,0.5,2.6,0.5c1.2,0,2.3-0.3,3.4-0.8l35.3-17.3c7.8-3.8,15-8.7,21.3-14.5l8-7.3l18.2-8.9
				C152.9,49.3,153.2,48.2,152.7,47.3z M133.4,54.8l-20.5-41.7l15.1-7.3l20.5,41.7L133.4,54.8z"/>
		</g>
	</g>
</g>
</svg>
