<svg xmlns="http://www.w3.org/2000/svg" width="73" height="73" viewBox="0 0 73 73"><g transform="translate(-483 -444)"><path d="M36.5,0A36.5,36.5,0,1,1,0,36.5,36.5,36.5,0,0,1,36.5,0Z" transform="translate(483 444)" fill="#3be5bf"/><path d="M-5802-2574.955a15.957,15.957,0,0,1,15.954-15.955,16.049,16.049,0,0,1,3.548.4v12.011h12.007a15.87,15.87,0,0,1,.4,3.544A15.954,15.954,0,0,1-5786.046-2559,15.955,15.955,0,0,1-5802-2574.955Zm3.9,0a12.062,12.062,0,0,0,12.059,12.062,12.062,12.062,0,0,0,12.063-12.062h-12.063v-12.06A12.061,12.061,0,0,0-5798.105-2574.955Zm19.15-7.091V-2598a15.876,15.876,0,0,1,3.547.4,15.976,15.976,0,0,1,2.561.815,15.959,15.959,0,0,1,5.175,3.459,15.963,15.963,0,0,1,3.459,5.176,16.09,16.09,0,0,1,.813,2.56,15.9,15.9,0,0,1,.4,3.544Zm3.547-3.544h8.345a12.268,12.268,0,0,0-.425-1.2,12.411,12.411,0,0,0-2.691-4.026,12.372,12.372,0,0,0-4.026-2.69,11.756,11.756,0,0,0-1.2-.428Z" transform="translate(6302 3059)" fill="#fff"/></g></svg>