<svg xmlns="http://www.w3.org/2000/svg" width="73" height="73" viewBox="0 0 73 73"><g transform="translate(-946 -444)"><path d="M36.5,0A36.5,36.5,0,1,1,0,36.5,36.5,36.5,0,0,1,36.5,0Z" transform="translate(946 444)" fill="#7175d9"/><g transform="translate(965 463)"><rect width="35" height="35" fill="none"/><g transform="translate(5.04 1.45)"><path d="M23.662,1H7.82A4.32,4.32,0,0,0,3.5,5.32V30.955a1.584,1.584,0,0,0,2.621,1.2L10.1,28.737l5.472,3.658a1.584,1.584,0,0,0,1.915-.115L21.5,28.838l3.86,3.312a1.584,1.584,0,0,0,2.621-1.2V5.32A4.32,4.32,0,0,0,23.662,1ZM25.1,28.117l-2.563-2.2a1.613,1.613,0,0,0-2.074,0l-4.119,3.528-5.472-3.658a1.6,1.6,0,0,0-1.915.115L6.38,28.132V5.32A1.44,1.44,0,0,1,7.82,3.88H23.662A1.44,1.44,0,0,1,25.1,5.32Z" transform="translate(-3.5 -1)" fill="#fff"/><path d="M7.94,7.88H18.021a1.44,1.44,0,0,0,0-2.88H7.94a1.44,1.44,0,0,0,0,2.88Z" transform="translate(-2.18 0.76)" fill="#fff"/><path d="M7.94,11.88H13.7A1.44,1.44,0,1,0,13.7,9H7.94a1.44,1.44,0,1,0,0,2.88Z" transform="translate(-2.18 2.521)" fill="#fff"/><path d="M19.461,13H7.94a1.44,1.44,0,1,0,0,2.88H19.461a1.44,1.44,0,1,0,0-2.88Z" transform="translate(-2.18 4.281)" fill="#fff"/></g></g></g></svg>