<svg xmlns="http://www.w3.org/2000/svg" xmlns:xlink="http://www.w3.org/1999/xlink" width="158" height="163" viewBox="0 0 158 163"><defs><style>.a{fill:#589cf8;}.b{fill:#fff;}.c{filter:url(#a);}</style><filter id="a" x="0" y="0" width="158" height="163" filterUnits="userSpaceOnUse"><feOffset dx="-5" dy="10" input="SourceAlpha"/><feGaussianBlur stdDeviation="12.5" result="b"/><feFlood flood-color="#589cf8" flood-opacity="0.251"/><feComposite operator="in" in2="b"/><feComposite in="SourceGraphic"/></filter></defs><g transform="translate(-1716.5 -48.5)"><g class="c" transform="matrix(1, 0, 0, 1, 1716.5, 48.5)"><rect class="a" width="83" height="88" rx="10" transform="translate(42.5 27.5)"/></g><path class="b" d="M28.028,1.5H6.575A3.586,3.586,0,0,0,3,5.075V30.1H6.575V5.075H28.028Zm5.363,7.151H13.726a3.586,3.586,0,0,0-3.575,3.575V37.254a3.586,3.586,0,0,0,3.575,3.575H33.391a3.586,3.586,0,0,0,3.575-3.575V12.226A3.586,3.586,0,0,0,33.391,8.651Zm0,28.6H13.726V12.226H33.391Z" transform="translate(1781.017 98.993)"/></g></svg>