<svg xmlns="http://www.w3.org/2000/svg" width="73" height="73" viewBox="0 0 73 73"><g transform="translate(-715 -444)"><path d="M36.5,0A36.5,36.5,0,1,1,0,36.5,36.5,36.5,0,0,1,36.5,0Z" transform="translate(715 444)" fill="#ffb03c"/><g transform="translate(734 463)"><path d="M18.337,17.822h3.286V7.963H11.764v3.286h4.249L7.256,20.006,9.58,22.33l8.757-8.757Z" transform="translate(3.582 2.874)" fill="#fff"/><path d="M36,29.636A6.364,6.364,0,0,1,29.636,36H7.364A6.364,6.364,0,0,1,1,29.636V7.364A6.364,6.364,0,0,1,7.364,1H29.636A6.364,6.364,0,0,1,36,7.364Zm-6.364,3.182H7.364a3.182,3.182,0,0,1-3.182-3.182V7.364A3.182,3.182,0,0,1,7.364,4.182H29.636a3.182,3.182,0,0,1,3.182,3.182V29.636A3.182,3.182,0,0,1,29.636,32.818Z" transform="translate(-1 -1)" fill="#fff" fill-rule="evenodd"/></g></g></svg>