<svg xmlns="http://www.w3.org/2000/svg" width="24" height="24" viewBox="0 0 24 24"><defs><style>.a{fill:none;}.b{fill:#002a6a;fill-rule:evenodd;}</style></defs><rect class="a" width="24" height="24"/><g transform="translate(-0.002)"><path class="b" d="M4.09,22.17a1,1,0,0,0,1-1v-18a1,1,0,0,0-2,0v18A1,1,0,0,0,4.09,22.17Z"/><path class="b" d="M19.71,1.83H8.29A1.2,1.2,0,0,0,7.09,3v8.6a1.2,1.2,0,0,0,1.2,1.2H19.71a1.2,1.2,0,0,0,1-1.87l-2.42-3.6L20.71,3.7a1.2,1.2,0,0,0-1-1.87ZM16.33,8l1.89,2.83H9.09v-7h9.13L16.33,6.66a1.21,1.21,0,0,0,0,1.34Z"/></g></svg>