<?xml version="1.0" encoding="utf-8"?>
<!-- Generator: Adobe Illustrator 22.1.0, SVG Export Plug-In . SVG Version: 6.00 Build 0)  -->
<svg version="1.1" id="Layer_1" xmlns="http://www.w3.org/2000/svg" xmlns:xlink="http://www.w3.org/1999/xlink" x="0px" y="0px"
	 viewBox="0 0 103.2 100" style="enable-background:new 0 0 103.2 100;" xml:space="preserve">
<style type="text/css">
	.st0{fill:#EB382F;stroke:#FFFFFF;stroke-width:2.8;stroke-miterlimit:10;}
</style>
<g>
	<path class="st0" d="M1.5,25.4C1.5,11,8.1,0.6,23,0.6c15,0,21.6,10.4,21.6,24.8v50.2c0,14.3-6.6,24.8-21.6,24.8
		c-15,0-21.6-10.5-21.6-24.8V25.4z M7.9,75.9c0,10.8,4.3,18.6,15.1,18.6c10.8,0,15.1-7.8,15.1-18.6V25c0-10.6-4.3-18.5-15.1-18.5
		C12.3,6.5,7.9,14.3,7.9,25V75.9z"/>
	<path class="st0" d="M54.6,87.2v12.3h-6.3V87.2H54.6z"/>
	<path class="st0" d="M58.3,25.4c0-14.4,6.6-24.8,21.6-24.8c15,0,21.6,10.4,21.6,24.8v50.2c0,14.3-6.6,24.8-21.6,24.8
		c-15,0-21.6-10.5-21.6-24.8V25.4z M64.8,75.9c0,10.8,4.3,18.6,15.1,18.6c10.8,0,15.1-7.8,15.1-18.6V25c0-10.6-4.3-18.5-15.1-18.5
		c-10.8,0-15.1,7.8-15.1,18.5V75.9z"/>
</g>
</svg>
