<?xml version="1.0" encoding="utf-8"?>
<!-- Generator: Adobe Illustrator 22.1.0, SVG Export Plug-In . SVG Version: 6.00 Build 0)  -->
<svg version="1.1" id="Layer_1" xmlns="http://www.w3.org/2000/svg" xmlns:xlink="http://www.w3.org/1999/xlink" x="0px" y="0px"
	 viewBox="0 0 111 100" style="enable-background:new 0 0 111 100;" xml:space="preserve">
<style type="text/css">
	.st0{fill:#EB382F;stroke:#EB382F;stroke-width:0.4756;stroke-miterlimit:10;}
	.st1{clip-path:url(#SVGID_2_);}
	.st2{fill:#EB382F;stroke:#EB382F;stroke-width:0.75;stroke-miterlimit:10;}
</style>
<g transform="translate(0,-952.36218)">
	<g>
		<path class="st0" d="M37.9,988.9c-0.6,0.1-1,0.5-0.9,1v21H3.4c0,0-0.1,0-0.1,0c-0.6,0-1.1,0.5-1,1v38c0,0.6,0.5,1,1.2,1h104.2
			c0.6,0,1.2-0.4,1.2-1v-26c0-0.6-0.5-1-1.2-1H74v-33c0-0.6-0.5-1-1.2-1H38.1C38.1,988.9,38,988.9,37.9,988.9z M39.3,990.9h32.4v58
			H39.3V990.9z M4.6,1012.9H37v36H4.6V1012.9z M74,1024.9h32.4v24H74V1024.9z"/>
	</g>
</g>
<g>
	<defs>
		<rect id="SVGID_1_" x="29.6" y="-6.5" width="57" height="44"/>
	</defs>
	<clipPath id="SVGID_2_">
		<use xlink:href="#SVGID_1_"  style="overflow:visible;"/>
	</clipPath>
	<g class="st1">
		<path class="st2" d="M69.4,1.8h-5.3H46.8c0,0,0,0,0,0s0,0,0,0h-5.3c-0.4,0-0.7,0.3-0.7,0.7v8.3c0,3.2,2.5,5.9,5.7,6
			c1.1,3.6,4.3,6.4,8.2,6.7V29c-2.3,0.2-4.2,1.7-4.6,3.5h-2.9c-0.4,0-0.7,0.3-0.7,0.7v4.3h-2.6c-0.4,0-0.7,0.3-0.7,0.7v5
			c0,0.4,0.3,0.7,0.7,0.7H67c0.4,0,0.7-0.3,0.7-0.7v-5c0-0.4-0.3-0.7-0.7-0.7h-2.6v-4.3c0-0.4-0.3-0.7-0.7-0.7h-2.9
			c-0.4-1.8-2.2-3.3-4.6-3.5v-5.6c3.9-0.3,7.2-3,8.2-6.7c3.2-0.2,5.7-2.8,5.7-6V2.5C70.1,2.1,69.8,1.8,69.4,1.8z M46.1,15.3
			c-2.2-0.3-3.9-2.3-3.9-4.6V3.2h3.9V15.3z M66.3,42.5H44.6v-3.6h2.6h16.4h2.6V42.5z M63,37.5h-15V34h2.9h9.3H63V37.5z M59.3,32.6
			h-7.7c0.4-1.2,2-2.2,3.8-2.2S58.8,31.3,59.3,32.6z M55.5,22.1c-4.4,0-7.9-3.6-7.9-7.9v-11h15.8v11C63.4,18.5,59.8,22.1,55.5,22.1z
			 M68.7,10.8c0,2.3-1.7,4.2-3.9,4.6v-1.2c0,0,0,0,0,0v-11h3.9L68.7,10.8L68.7,10.8z"/>
	</g>
</g>
</svg>
